<svg xmlns="http://www.w3.org/2000/svg" xmlns:xlink="http://www.w3.org/1999/xlink" width="500" zoomAndPan="magnify" viewBox="0 0 375 374.999991" height="500" preserveAspectRatio="xMidYMid meet" version="1.0"><defs><clipPath id="1c9c700158"><path d="M 47 43.609375 L 187.703125 43.609375 L 187.703125 331.609375 L 47 331.609375 Z M 47 43.609375 " clip-rule="nonzero"/></clipPath><clipPath id="b90e560d4e"><path d="M 187.125 43.609375 L 328.875 43.609375 L 328.875 331.609375 L 187.125 331.609375 Z M 187.125 43.609375 " clip-rule="nonzero"/></clipPath><clipPath id="7ca9d4911d"><path d="M 0.125 0.609375 L 141 0.609375 L 141 288.441406 L 0.125 288.441406 Z M 0.125 0.609375 " clip-rule="nonzero"/></clipPath><clipPath id="ae33e99191"><rect x="0" width="142" y="0" height="289"/></clipPath></defs><rect x="-37.5" width="450" fill="#ffffff" y="-37.499999" height="449.999989" fill-opacity="1"/><rect x="-37.5" width="450" fill="#000000" y="-37.499999" height="449.999989" fill-opacity="1"/><g clip-path="url(#1c9c700158)"><path fill="#ffffff" d="M 234.394531 194.582031 L 235.332031 196.296875 L 233.230469 206.757812 C 231.410156 216.09375 228.015625 224.820312 223.046875 232.933594 C 219.882812 237.898438 216.195312 242.4375 211.980469 246.546875 L 210.320312 248.152344 C 204.21875 253.851562 197.394531 258.484375 189.84375 262.042969 C 182.324219 258.546875 175.519531 253.988281 169.421875 248.371094 L 167.761719 246.769531 C 165.054688 244.070312 162.558594 241.1875 160.277344 238.117188 C 157.996094 235.050781 155.953125 231.828125 154.148438 228.457031 C 152.339844 225.085938 150.792969 221.601562 149.503906 218.003906 C 148.214844 214.402344 147.199219 210.726562 146.453125 206.976562 L 144.351562 196.519531 L 145.292969 194.800781 C 146.84375 192.035156 148.335938 189.269531 149.777344 186.390625 C 150.273438 185.339844 150.828125 184.34375 151.324219 183.347656 C 153.039062 179.75 154.757812 176.097656 156.304688 172.277344 L 156.582031 172.609375 L 157.910156 173.828125 C 159.792969 175.652344 161.730469 177.371094 163.777344 179.03125 C 164.550781 179.695312 165.382812 180.300781 166.210938 180.910156 C 167.988281 182.335938 169.832031 183.664062 171.746094 184.894531 L 174.238281 186.445312 C 177.003906 188.117188 179.863281 189.609375 182.816406 190.929688 L 187.296875 192.921875 C 188.042969 193.226562 188.816406 193.378906 189.621094 193.378906 C 190.425781 193.378906 191.199219 193.226562 191.945312 192.921875 L 196.484375 190.929688 C 199.410156 189.597656 202.253906 188.105469 205.007812 186.445312 C 205.890625 185.949219 206.722656 185.394531 207.550781 184.839844 C 209.433594 183.621094 211.316406 182.351562 213.085938 180.964844 L 215.632812 179.03125 C 217.570312 177.425781 219.394531 175.765625 221.167969 174.050781 C 221.664062 173.550781 222.21875 173.109375 222.714844 172.554688 C 222.734375 172.460938 222.734375 172.371094 222.714844 172.277344 C 224.265625 176.042969 225.980469 179.695312 227.753906 183.347656 C 228.195312 184.289062 228.691406 185.285156 229.191406 186.222656 C 231.292969 188.9375 232.84375 191.8125 234.394531 194.582031 Z M 223.601562 153.460938 C 222.660156 154.902344 221.71875 156.285156 220.613281 157.722656 C 216.851562 162.59375 212.554688 166.933594 207.722656 170.746094 C 202.890625 174.558594 197.667969 177.726562 192.058594 180.246094 L 189.84375 181.1875 L 187.683594 180.246094 C 182.039062 177.722656 176.792969 174.546875 171.941406 170.714844 C 167.089844 166.882812 162.78125 162.515625 159.019531 157.613281 C 157.964844 156.285156 157.023438 154.902344 155.972656 153.351562 L 155.640625 152.796875 C 151.933594 147.113281 149.070312 141.035156 147.046875 134.558594 C 145.027344 128.082031 143.925781 121.449219 143.742188 114.667969 C 168.535156 89.542969 182.484375 68.179688 189.84375 45.046875 C 196.980469 68.179688 211.148438 89.320312 235.941406 114.667969 C 235.761719 121.585938 234.625 128.34375 232.523438 134.941406 C 230.425781 141.535156 227.453125 147.710938 223.601562 153.460938 Z M 153.539062 47.648438 C 161.652344 45.59375 169.878906 44.25 178.222656 43.609375 C 171.25 64.695312 157.632812 84.449219 133.949219 108.246094 L 116.625 123.578125 C 111.375 128.265625 105.75 132.4375 99.742188 136.101562 C 93.734375 139.765625 87.445312 142.859375 80.875 145.382812 C 74.183594 147.929688 67.320312 149.863281 60.289062 151.191406 C 55.929688 152.023438 51.539062 152.597656 47.117188 152.910156 C 47.949219 149.742188 48.886719 146.609375 49.929688 143.507812 C 50.972656 140.40625 52.117188 137.34375 53.363281 134.316406 C 54.613281 131.292969 55.957031 128.308594 57.402344 125.375 C 58.847656 122.4375 60.390625 119.554688 62.027344 116.722656 C 63.667969 113.886719 65.398438 111.113281 67.222656 108.394531 C 69.042969 105.675781 70.957031 103.023438 72.957031 100.433594 C 74.957031 97.84375 77.039062 95.324219 79.207031 92.871094 C 81.375 90.421875 83.625 88.042969 85.949219 85.742188 C 88.277344 83.441406 90.679688 81.21875 93.152344 79.078125 C 95.628906 76.9375 98.171875 74.882812 100.78125 72.910156 C 103.394531 70.9375 106.070312 69.054688 108.808594 67.261719 C 111.542969 65.46875 114.339844 63.769531 117.191406 62.164062 C 120.039062 60.554688 122.941406 59.046875 125.894531 57.632812 C 128.84375 56.21875 131.839844 54.90625 134.878906 53.691406 C 137.917969 52.476562 140.996094 51.367188 144.109375 50.359375 C 147.222656 49.351562 150.363281 48.445312 153.539062 47.648438 Z M 87.957031 247.210938 L 85.964844 242.839844 C 80.242188 230.023438 75.804688 216.777344 72.660156 203.101562 C 69.511719 189.421875 67.710938 175.570312 67.261719 161.542969 C 68.699219 161.210938 70.140625 160.765625 71.523438 160.378906 C 72.90625 159.992188 73.625 159.824219 74.675781 159.824219 C 78.109375 158.828125 81.539062 157.722656 84.96875 156.449219 C 92.199219 153.625 99.117188 150.171875 105.71875 146.085938 C 112.324219 142.003906 118.503906 137.359375 124.261719 132.15625 L 132.953125 124.460938 C 133.84375 130.683594 135.402344 136.738281 137.625 142.617188 C 139.847656 148.5 142.679688 154.070312 146.121094 159.328125 L 146.453125 159.824219 L 147.949219 161.984375 L 147.449219 163.257812 C 145.570312 167.90625 143.578125 172.5 141.417969 177.039062 L 140.699219 178.421875 C 138.375 183.179688 135.882812 187.882812 133.226562 192.476562 C 132.5625 193.640625 131.898438 194.746094 131.125 195.910156 C 121.207031 212.246094 109.324219 227.003906 95.484375 240.183594 C 93.992188 241.675781 92.496094 243.117188 90.890625 244.554688 Z M 126.699219 300.007812 C 121.289062 292.429688 116.824219 284.332031 113.304688 275.710938 C 109.496094 266.292969 106.878906 256.550781 105.445312 246.492188 C 108.269531 243.722656 110.980469 240.957031 113.691406 237.96875 L 114.300781 237.25 C 117.125 234.148438 119.835938 230.996094 122.546875 227.730469 L 125.203125 224.355469 C 127.140625 221.863281 129.132812 219.261719 131.015625 216.660156 L 133.617188 212.953125 L 135.277344 210.628906 C 135.277344 211.570312 135.71875 212.457031 135.996094 213.398438 C 136.273438 214.335938 136.382812 215.167969 136.660156 216.054688 C 136.9375 216.9375 137.433594 218.488281 137.820312 219.707031 C 138.210938 220.921875 138.320312 221.367188 138.597656 222.140625 C 138.875 222.914062 139.59375 224.6875 140.144531 225.960938 C 140.699219 227.230469 140.699219 227.398438 141.03125 228.0625 C 141.695312 229.613281 142.414062 231.050781 143.191406 232.546875 C 143.191406 232.933594 143.578125 233.375 143.796875 233.816406 C 144.792969 235.699219 145.902344 237.527344 147.007812 239.351562 L 147.839844 240.570312 L 150.605469 244.609375 L 152.101562 246.492188 L 154.589844 249.589844 C 155.199219 250.308594 155.863281 250.972656 156.472656 251.636719 C 157.082031 252.300781 157.746094 253.132812 158.464844 253.796875 C 157.800781 255.457031 157.136719 257.007812 156.417969 258.609375 C 155.695312 260.214844 155.308594 261.324219 154.644531 262.652344 C 153.980469 263.980469 152.765625 266.191406 151.824219 268.183594 C 150.882812 270.175781 150.496094 270.785156 149.71875 272.058594 C 148.945312 273.332031 147.5625 275.378906 146.453125 277.039062 L 144.019531 280.746094 C 142.414062 282.90625 140.699219 285.007812 138.984375 287.113281 C 138.484375 287.664062 138.042969 288.328125 137.546875 288.882812 C 135.773438 290.984375 133.78125 293.199219 131.566406 295.414062 Z M 189.84375 331.386719 C 185.628906 329.253906 181.589844 326.835938 177.722656 324.125 C 173.855469 321.417969 170.203125 318.445312 166.761719 315.214844 C 163.320312 311.984375 160.125 308.523438 157.175781 304.835938 C 154.230469 301.148438 151.558594 297.269531 149.167969 293.199219 C 150.328125 291.761719 151.378906 290.320312 152.488281 288.828125 L 154.148438 286.667969 C 156.140625 283.792969 158.078125 281.136719 159.683594 277.871094 C 160.125 277.207031 160.457031 276.542969 160.84375 275.878906 C 162.171875 273.5 163.5 271.007812 164.71875 268.515625 C 165.269531 267.464844 165.714844 266.414062 166.210938 265.363281 L 167.707031 262.207031 L 168.316406 262.652344 C 170.804688 264.53125 173.40625 266.304688 176.007812 268.183594 L 178.277344 269.511719 C 181.234375 271.230469 184.28125 272.777344 187.40625 274.164062 C 188.136719 274.457031 188.890625 274.605469 189.675781 274.605469 C 190.460938 274.605469 191.21875 274.457031 191.945312 274.164062 C 195.0625 272.789062 198.085938 271.238281 201.023438 269.511719 L 203.347656 268.128906 C 205.890625 266.582031 208.382812 264.921875 210.761719 263.148438 L 211.648438 262.484375 L 213.140625 265.640625 L 214.636719 268.847656 C 215.855469 271.285156 217.125 273.664062 218.453125 275.988281 C 218.84375 276.707031 219.230469 277.484375 219.671875 278.203125 C 221.441406 281.136719 223.324219 284.070312 225.207031 286.890625 C 225.761719 287.664062 226.367188 288.386719 226.976562 289.160156 C 227.585938 289.933594 229.082031 292.09375 230.242188 293.476562 C 227.867188 297.519531 225.21875 301.371094 222.292969 305.035156 C 219.367188 308.699219 216.191406 312.132812 212.773438 315.339844 C 209.355469 318.550781 205.726562 321.496094 201.882812 324.183594 C 198.042969 326.875 194.027344 329.273438 189.84375 331.386719 Z M 266.160156 276.042969 C 262.628906 284.65625 258.164062 292.753906 252.765625 300.339844 L 247.898438 295.46875 C 245.683594 293.253906 243.691406 291.042969 241.863281 288.882812 C 240.039062 286.726562 237.4375 283.347656 235.390625 280.691406 C 234.726562 279.808594 234.117188 278.8125 233.507812 277.816406 C 232.179688 275.933594 230.90625 274.050781 229.746094 272.28125 C 228.582031 270.507812 228.417969 269.84375 227.753906 268.683594 C 227.089844 267.519531 225.703125 265.03125 224.820312 263.148438 C 223.933594 261.265625 223.65625 260.4375 223.046875 259.109375 C 222.4375 257.78125 221.664062 255.953125 221 254.351562 L 222.382812 252.855469 L 223.378906 251.859375 C 224.320312 250.753906 225.316406 249.644531 226.3125 248.371094 C 228.535156 245.640625 230.582031 242.78125 232.457031 239.796875 C 233.066406 238.796875 233.5625 237.746094 234.171875 236.75 C 235.332031 234.703125 236.550781 232.65625 237.546875 230.496094 C 238.15625 229.226562 238.597656 227.894531 239.152344 226.625 C 239.707031 225.351562 240.867188 222.695312 241.53125 220.648438 C 242.195312 218.597656 242.308594 217.824219 242.75 216.386719 C 243.191406 214.945312 243.800781 212.953125 244.1875 211.183594 L 245.847656 213.507812 L 248.503906 217.269531 C 250.386719 219.816406 252.269531 222.363281 254.039062 224.796875 L 256.804688 228.339844 C 259.296875 231.382812 261.898438 234.425781 264.554688 237.359375 L 265.660156 238.578125 C 268.316406 241.457031 271.195312 244.113281 273.851562 247.042969 C 272.429688 256.90625 269.867188 266.464844 266.160156 275.710938 Z M 293.832031 242.839844 L 291.839844 247.320312 L 288.90625 244.71875 C 287.300781 243.28125 285.804688 241.84375 284.199219 240.238281 C 270.382812 227.050781 258.523438 212.292969 248.617188 195.964844 C 247.898438 194.855469 247.234375 193.75 246.511719 192.421875 C 243.855469 187.941406 241.421875 183.289062 239.097656 178.585938 L 238.378906 177.09375 C 236.164062 172.609375 234.226562 168.015625 232.34375 163.367188 L 231.847656 162.09375 L 233.339844 159.9375 C 236.890625 154.625 239.804688 148.984375 242.085938 143.015625 C 244.363281 137.046875 245.949219 130.898438 246.84375 124.574219 L 255.421875 132.15625 C 257.527344 134.035156 259.683594 135.863281 261.898438 137.6875 L 264.222656 139.40625 L 268.761719 142.613281 L 271.636719 144.496094 C 273.023438 145.382812 274.40625 146.265625 275.84375 147.097656 L 279.054688 148.867188 C 280.4375 149.644531 281.820312 150.417969 283.203125 151.082031 L 286.691406 152.742188 C 288.019531 153.351562 289.402344 154.015625 290.839844 154.570312 C 292.28125 155.121094 293.222656 155.566406 294.4375 156.0625 L 298.644531 157.613281 L 302.40625 158.828125 L 306.726562 160.101562 L 310.488281 161.042969 L 312.425781 161.597656 C 311.96875 175.617188 310.167969 189.457031 307.023438 203.128906 C 303.875 216.796875 299.441406 230.03125 293.71875 242.839844 Z M 319.507812 151.25 C 314.296875 150.273438 309.171875 148.953125 304.136719 147.28125 C 299.105469 145.609375 294.207031 143.605469 289.445312 141.265625 C 284.6875 138.929688 280.105469 136.277344 275.707031 133.316406 C 271.308594 130.355469 267.128906 127.109375 263.171875 123.578125 L 245.902344 108.246094 C 222.164062 84.449219 208.546875 64.695312 201.628906 43.609375 C 205.410156 43.90625 209.175781 44.347656 212.921875 44.933594 C 216.667969 45.523438 220.386719 46.253906 224.074219 47.125 C 227.765625 48 231.417969 49.015625 235.027344 50.171875 C 238.640625 51.328125 242.203125 52.621094 245.714844 54.050781 C 249.226562 55.480469 252.675781 57.046875 256.066406 58.742188 C 259.457031 60.441406 262.78125 62.265625 266.03125 64.21875 C 269.28125 66.171875 272.449219 68.246094 275.539062 70.445312 C 278.628906 72.644531 281.632812 74.957031 284.542969 77.386719 C 287.453125 79.816406 290.269531 82.351562 292.984375 85 C 295.699219 87.648438 298.308594 90.394531 300.8125 93.242188 C 303.316406 96.089844 305.707031 99.03125 307.984375 102.0625 C 310.261719 105.09375 312.417969 108.210938 314.457031 111.410156 C 316.492188 114.609375 318.402344 117.878906 320.1875 121.226562 C 321.96875 124.574219 323.621094 127.984375 325.144531 131.457031 C 326.664062 134.929688 328.050781 138.457031 329.296875 142.039062 C 330.546875 145.617188 331.65625 149.242188 332.625 152.910156 C 328.179688 152.601562 323.769531 152.011719 319.398438 151.136719 Z M 319.507812 151.25 " fill-opacity="1" fill-rule="nonzero"/></g><g clip-path="url(#b90e560d4e)"><g transform="matrix(1, 0, 0, 1, 187, 43)"><g clip-path="url(#ae33e99191)"><g clip-path="url(#7ca9d4911d)"><path fill="#ffffff" d="M -46.398438 151.582031 L -47.339844 153.296875 L -45.238281 163.757812 C -43.417969 173.09375 -40.023438 181.820312 -35.054688 189.933594 C -31.890625 194.898438 -28.203125 199.4375 -23.988281 203.546875 L -22.324219 205.152344 C -16.226562 210.851562 -9.402344 215.484375 -1.851562 219.042969 C 5.667969 215.546875 12.472656 210.988281 18.570312 205.371094 L 20.230469 203.769531 C 22.941406 201.070312 25.433594 198.1875 27.71875 195.117188 C 30 192.050781 32.042969 188.828125 33.847656 185.457031 C 35.652344 182.085938 37.199219 178.601562 38.488281 175.003906 C 39.777344 171.402344 40.792969 167.726562 41.539062 163.976562 L 43.640625 153.519531 L 42.699219 151.800781 C 41.152344 149.035156 39.65625 146.269531 38.21875 143.390625 C 37.71875 142.339844 37.167969 141.34375 36.667969 140.347656 C 34.953125 136.75 33.238281 133.097656 31.6875 129.277344 L 31.410156 129.609375 L 30.082031 130.828125 C 28.199219 132.652344 26.265625 134.371094 24.214844 136.03125 C 23.441406 136.695312 22.613281 137.300781 21.78125 137.910156 C 20.003906 139.335938 18.160156 140.664062 16.246094 141.894531 L 13.757812 143.445312 C 10.988281 145.117188 8.128906 146.609375 5.179688 147.929688 L 0.695312 149.921875 C -0.046875 150.226562 -0.824219 150.378906 -1.628906 150.378906 C -2.433594 150.378906 -3.207031 150.226562 -3.953125 149.921875 L -8.492188 147.929688 C -11.417969 146.597656 -14.257812 145.105469 -17.011719 143.445312 C -17.898438 142.949219 -18.730469 142.394531 -19.558594 141.839844 C -21.441406 140.621094 -23.320312 139.351562 -25.09375 137.964844 L -27.640625 136.03125 C -29.574219 134.425781 -31.402344 132.765625 -33.171875 131.050781 C -33.671875 130.550781 -34.222656 130.109375 -34.722656 129.554688 C -34.742188 129.460938 -34.742188 129.371094 -34.722656 129.277344 C -36.273438 133.042969 -37.988281 136.695312 -39.757812 140.347656 C -40.203125 141.289062 -40.699219 142.285156 -41.199219 143.222656 C -43.300781 145.9375 -44.851562 148.8125 -46.398438 151.582031 Z M -35.609375 110.460938 C -34.667969 111.902344 -33.726562 113.285156 -32.621094 114.722656 C -28.859375 119.59375 -24.5625 123.933594 -19.730469 127.746094 C -14.898438 131.558594 -9.675781 134.726562 -4.0625 137.246094 L -1.847656 138.1875 L 0.308594 137.246094 C 5.953125 134.722656 11.199219 131.546875 16.050781 127.714844 C 20.902344 123.882812 25.210938 119.515625 28.976562 114.613281 C 30.027344 113.285156 30.96875 111.902344 32.019531 110.351562 L 32.351562 109.796875 C 36.058594 104.113281 38.925781 98.035156 40.945312 91.558594 C 42.964844 85.082031 44.066406 78.449219 44.25 71.667969 C 19.457031 46.542969 5.511719 25.179688 -1.851562 2.046875 C -8.988281 25.179688 -23.15625 46.320312 -47.949219 71.667969 C -47.769531 78.585938 -46.628906 85.34375 -44.53125 91.941406 C -42.433594 98.535156 -39.457031 104.710938 -35.609375 110.460938 Z M 34.453125 4.648438 C 26.34375 2.59375 18.113281 1.25 9.773438 0.609375 C 16.746094 21.695312 30.359375 41.449219 54.046875 65.246094 L 71.367188 80.578125 C 76.617188 85.265625 82.246094 89.4375 88.253906 93.101562 C 94.261719 96.765625 100.550781 99.859375 107.117188 102.382812 C 113.808594 104.929688 120.671875 106.863281 127.707031 108.191406 C 132.0625 109.023438 136.453125 109.597656 140.875 109.910156 C 140.042969 106.742188 139.105469 103.609375 138.0625 100.507812 C 137.019531 97.40625 135.875 94.34375 134.628906 91.316406 C 133.382812 88.292969 132.035156 85.308594 130.589844 82.375 C 129.144531 79.4375 127.601562 76.554688 125.964844 73.722656 C 124.328125 70.886719 122.597656 68.113281 120.773438 65.394531 C 118.949219 62.675781 117.039062 60.023438 115.039062 57.433594 C 113.039062 54.84375 110.953125 52.324219 108.785156 49.871094 C 106.617188 47.421875 104.371094 45.042969 102.042969 42.742188 C 99.714844 40.441406 97.316406 38.21875 94.839844 36.078125 C 92.367188 33.9375 89.824219 31.882812 87.210938 29.910156 C 84.597656 27.9375 81.921875 26.054688 79.1875 24.261719 C 76.449219 22.46875 73.65625 20.769531 70.804688 19.164062 C 67.953125 17.554688 65.050781 16.046875 62.101562 14.632812 C 59.148438 13.21875 56.152344 11.90625 53.113281 10.691406 C 50.074219 9.476562 47 8.367188 43.886719 7.359375 C 40.773438 6.351562 37.628906 5.445312 34.453125 4.648438 Z M 100.035156 204.210938 L 102.027344 199.839844 C 107.75 187.023438 112.1875 173.777344 115.335938 160.101562 C 118.480469 146.421875 120.28125 132.570312 120.734375 118.542969 C 119.292969 118.210938 117.855469 117.765625 116.472656 117.378906 C 115.085938 116.992188 114.367188 116.824219 113.316406 116.824219 C 109.886719 115.828125 106.453125 114.722656 103.023438 113.449219 C 95.792969 110.625 88.875 107.171875 82.273438 103.085938 C 75.671875 99.003906 69.488281 94.359375 63.730469 89.15625 L 55.042969 81.460938 C 54.148438 87.683594 52.589844 93.738281 50.367188 99.617188 C 48.148438 105.5 45.3125 111.070312 41.871094 116.328125 L 41.539062 116.824219 L 40.042969 118.984375 L 40.542969 120.257812 C 42.425781 124.90625 44.417969 129.5 46.574219 134.039062 L 47.292969 135.421875 C 49.617188 140.179688 52.109375 144.882812 54.765625 149.476562 C 55.429688 150.640625 56.09375 151.746094 56.867188 152.910156 C 66.789062 169.246094 78.667969 184.003906 92.507812 197.183594 C 94.003906 198.675781 95.496094 200.117188 97.101562 201.554688 Z M 61.296875 257.007812 C 66.703125 249.429688 71.167969 241.332031 74.6875 232.710938 C 78.496094 223.292969 81.117188 213.550781 82.546875 203.492188 C 79.722656 200.722656 77.011719 197.957031 74.300781 194.96875 L 73.691406 194.25 C 70.871094 191.148438 68.15625 187.996094 65.445312 184.730469 L 62.789062 181.355469 C 60.851562 178.863281 58.859375 176.261719 56.980469 173.660156 L 54.378906 169.953125 L 52.71875 167.628906 C 52.71875 168.570312 52.273438 169.457031 51.996094 170.398438 C 51.722656 171.335938 51.609375 172.167969 51.332031 173.054688 C 51.058594 173.9375 50.558594 175.488281 50.171875 176.707031 C 49.785156 177.921875 49.671875 178.367188 49.398438 179.140625 C 49.121094 179.914062 48.402344 181.6875 47.847656 182.960938 C 47.292969 184.230469 47.292969 184.398438 46.960938 185.0625 C 46.296875 186.613281 45.578125 188.050781 44.804688 189.546875 C 44.804688 189.933594 44.417969 190.375 44.195312 190.816406 C 43.199219 192.699219 42.089844 194.527344 40.984375 196.351562 L 40.15625 197.570312 L 37.386719 201.609375 L 35.894531 203.492188 L 33.402344 206.589844 C 32.792969 207.308594 32.128906 207.972656 31.523438 208.636719 C 30.914062 209.300781 30.25 210.132812 29.527344 210.796875 C 30.191406 212.457031 30.855469 214.007812 31.578125 215.609375 C 32.296875 217.214844 32.683594 218.324219 33.347656 219.652344 C 34.011719 220.980469 35.230469 223.191406 36.171875 225.183594 C 37.109375 227.175781 37.5 227.785156 38.273438 229.058594 C 39.046875 230.332031 40.429688 232.378906 41.539062 234.039062 L 43.972656 237.746094 C 45.578125 239.90625 47.292969 242.007812 49.007812 244.113281 C 49.507812 244.664062 49.949219 245.328125 50.449219 245.882812 C 52.21875 247.984375 54.210938 250.199219 56.425781 252.414062 Z M -1.851562 288.386719 C 2.363281 286.253906 6.402344 283.835938 10.269531 281.125 C 14.136719 278.417969 17.789062 275.445312 21.230469 272.214844 C 24.675781 268.984375 27.867188 265.523438 30.816406 261.835938 C 33.765625 258.148438 36.433594 254.269531 38.828125 250.199219 C 37.664062 248.761719 36.613281 247.320312 35.507812 245.828125 L 33.847656 243.667969 C 31.855469 240.792969 29.917969 238.136719 28.3125 234.871094 C 27.867188 234.207031 27.535156 233.542969 27.148438 232.878906 C 25.820312 230.5 24.492188 228.007812 23.277344 225.515625 C 22.722656 224.464844 22.28125 223.414062 21.78125 222.363281 L 20.285156 219.207031 L 19.679688 219.652344 C 17.1875 221.53125 14.585938 223.304688 11.984375 225.183594 L 9.71875 226.511719 C 6.757812 228.230469 3.714844 229.777344 0.585938 231.164062 C -0.140625 231.457031 -0.898438 231.605469 -1.683594 231.605469 C -2.46875 231.605469 -3.226562 231.457031 -3.953125 231.164062 C -7.070312 229.789062 -10.09375 228.238281 -13.027344 226.511719 L -15.351562 225.128906 C -17.898438 223.582031 -20.390625 221.921875 -22.769531 220.148438 L -23.652344 219.484375 L -25.148438 222.640625 L -26.644531 225.847656 C -27.859375 228.285156 -29.132812 230.664062 -30.460938 232.988281 C -30.847656 233.707031 -31.234375 234.484375 -31.679688 235.203125 C -33.449219 238.136719 -35.332031 241.070312 -37.214844 243.890625 C -37.765625 244.664062 -38.375 245.386719 -38.984375 246.160156 C -39.59375 246.933594 -41.085938 249.09375 -42.25 250.476562 C -39.875 254.519531 -37.226562 258.371094 -34.296875 262.035156 C -31.371094 265.699219 -28.199219 269.132812 -24.78125 272.339844 C -21.363281 275.550781 -17.730469 278.496094 -13.890625 281.183594 C -10.046875 283.875 -6.035156 286.273438 -1.851562 288.386719 Z M -78.164062 233.042969 C -74.632812 241.65625 -70.171875 249.753906 -64.773438 257.339844 L -59.902344 252.46875 C -57.691406 250.253906 -55.695312 248.042969 -53.871094 245.882812 C -52.042969 243.726562 -49.445312 240.347656 -47.394531 237.691406 C -46.730469 236.808594 -46.125 235.8125 -45.515625 234.816406 C -44.1875 232.933594 -42.914062 231.050781 -41.75 229.28125 C -40.589844 227.507812 -40.421875 226.84375 -39.757812 225.683594 C -39.09375 224.519531 -37.710938 222.03125 -36.824219 220.148438 C -35.941406 218.265625 -35.664062 217.4375 -35.054688 216.109375 C -34.445312 214.78125 -33.671875 212.953125 -33.007812 211.351562 L -34.390625 209.855469 L -35.386719 208.859375 C -36.328125 207.753906 -37.324219 206.644531 -38.320312 205.371094 C -40.542969 202.640625 -42.589844 199.78125 -44.460938 196.796875 C -45.070312 195.796875 -45.570312 194.746094 -46.179688 193.75 C -47.339844 191.703125 -48.558594 189.65625 -49.554688 187.496094 C -50.164062 186.226562 -50.605469 184.894531 -51.160156 183.625 C -51.710938 182.351562 -52.875 179.695312 -53.539062 177.648438 C -54.203125 175.597656 -54.3125 174.824219 -54.757812 173.386719 C -55.199219 171.945312 -55.808594 169.953125 -56.195312 168.183594 L -57.855469 170.507812 L -60.511719 174.269531 C -62.394531 176.816406 -64.273438 179.363281 -66.046875 181.796875 L -68.8125 185.339844 C -71.304688 188.382812 -73.90625 191.425781 -76.5625 194.359375 L -77.667969 195.578125 C -80.324219 198.457031 -83.203125 201.113281 -85.859375 204.042969 C -84.4375 213.90625 -81.875 223.464844 -78.164062 232.710938 Z M -105.835938 199.839844 L -103.84375 204.320312 L -100.910156 201.71875 C -99.304688 200.28125 -97.8125 198.84375 -96.207031 197.238281 C -82.390625 184.050781 -70.527344 169.292969 -60.621094 152.964844 C -59.902344 151.855469 -59.238281 150.75 -58.519531 149.421875 C -55.863281 144.941406 -53.429688 140.289062 -51.105469 135.585938 L -50.382812 134.09375 C -48.171875 129.609375 -46.234375 125.015625 -44.351562 120.367188 L -43.855469 119.09375 L -45.347656 116.9375 C -48.898438 111.625 -51.8125 105.984375 -54.09375 100.015625 C -56.371094 94.046875 -57.957031 87.898438 -58.851562 81.574219 L -67.429688 89.15625 C -69.53125 91.035156 -71.691406 92.863281 -73.90625 94.6875 L -76.230469 96.40625 L -80.765625 99.613281 L -83.644531 101.496094 C -85.027344 102.382812 -86.410156 103.265625 -87.851562 104.097656 L -91.0625 105.867188 C -92.445312 106.644531 -93.828125 107.417969 -95.210938 108.082031 L -98.699219 109.742188 C -100.027344 110.351562 -101.410156 111.015625 -102.847656 111.570312 C -104.289062 112.121094 -105.226562 112.566406 -106.445312 113.0625 L -110.652344 114.613281 L -114.414062 115.828125 L -118.730469 117.101562 L -122.496094 118.042969 L -124.433594 118.597656 C -123.976562 132.617188 -122.175781 146.457031 -119.027344 160.128906 C -115.882812 173.796875 -111.449219 187.03125 -105.726562 199.839844 Z M -131.515625 108.25 C -126.300781 107.273438 -121.179688 105.953125 -116.144531 104.28125 C -111.109375 102.609375 -106.214844 100.605469 -101.453125 98.265625 C -96.691406 95.929688 -92.113281 93.277344 -87.714844 90.316406 C -83.3125 87.355469 -79.136719 84.109375 -75.175781 80.578125 L -57.910156 65.246094 C -34.167969 41.449219 -20.554688 21.695312 -13.636719 0.609375 C -17.417969 0.90625 -21.179688 1.347656 -24.925781 1.933594 C -28.675781 2.523438 -32.390625 3.253906 -36.082031 4.125 C -39.773438 5 -43.421875 6.015625 -47.035156 7.171875 C -50.644531 8.328125 -54.207031 9.621094 -57.71875 11.050781 C -61.230469 12.480469 -64.683594 14.046875 -68.074219 15.742188 C -71.464844 17.441406 -74.785156 19.265625 -78.035156 21.21875 C -81.285156 23.171875 -84.457031 25.246094 -87.546875 27.445312 C -90.636719 29.644531 -93.636719 31.957031 -96.550781 34.386719 C -99.460938 36.816406 -102.277344 39.351562 -104.992188 42 C -107.707031 44.648438 -110.316406 47.394531 -112.820312 50.242188 C -115.324219 53.089844 -117.714844 56.03125 -119.992188 59.0625 C -122.269531 62.09375 -124.425781 65.210938 -126.460938 68.410156 C -128.5 71.609375 -130.410156 74.878906 -132.191406 78.226562 C -133.976562 81.574219 -135.628906 84.984375 -137.148438 88.457031 C -138.671875 91.929688 -140.054688 95.457031 -141.304688 99.039062 C -142.554688 102.617188 -143.664062 106.242188 -144.632812 109.910156 C -140.183594 109.601562 -135.777344 109.011719 -131.40625 108.136719 Z M -131.515625 108.25 " fill-opacity="1" fill-rule="nonzero"/></g></g></g></g></svg>